PathFileType	4	(X/Y/Z)	C:/Users/beibeiliu/ov580/test_trc/User2\sequence.13_training_dense_right.trc
DataRate	CameraRate	NumFrames	NumMarkers	Units	OrigDataRate	OrigDataStartFrame	OrigNumFrames
120	120	24	19	mm	120	253	336
Frame#	Time	ThumbCMC			ThumbMCP			ThumbIP			ThumbTip			IndexMCP			IndexPIP			IndexTip			MiddleMCP			MiddlePIP			MiddleTip			RingMCP			RingPIP			RingTip			PinkyMCP			PinkyPIP			PinkyTip			BackHand1			BackHand2			BackHand3	
		X0	Y0	Z0	X1	Y1	Z1	X2	Y2	Z2	X3	Y3	Z3	X4	Y4	Z4	X5	Y5	Z5	X6	Y6	Z6	X7	Y7	Z7	X8	Y8	Z8	X9	Y9	Z9	X10	Y10	Z10	X11	Y11	Z11	X12	Y12	Z12	X13	Y13	Z13	X14	Y14	Z14	X15	Y15	Z15	X16	Y16	Z16	X17	Y17	Z17	X18	Y18	Z18	
252	2.1	50.3903	-20.4074	115.382	19.8666	-23.8022	99.9193	-5.68746	-30.2889	79.5562	-14.4289	-41.5738	57.3892	56.8149	2.44698	36.3687	39.8968	4.87054	5.50532	16.7444	-17.3835	-9.68208	75.7543	-9.19711	18.5706	65.6387	-17.218	-15.0762	36.6069	-44.6635	-27.2798	75.4961	-42.2762	15.0812	54.9654	-65.5307	6.40328	46.6322	-75.021	43.0472	84.2727	-63.9856	24.8343	60.8974	-87.3931	30.0459	59.2828	-84.5642	63.236	110.541	-30.0769	67.9188	123.053	-33.7832	98.7256	89.7394	-10.3648	92.8342	
253	2.10833	49.9658	-12.8532	112.522	23.0138	-18.4039	101.416	-7.50965	-20.2096	75.602	-18.0417	-28.8694	52.2519	54.5983	15.2407	38.0315	39.7661	18.1921	7.47135	19.5038	-1.49292	-7.59501	75.3279	1.32238	19.0701	64.0767	-7.90453	-17.8376	36.99	-32.0703	-29.1957	77.4463	-33.3377	11.9471	55.3822	-52.4401	4.93538	45.7587	-64.1986	39.8028	87.2613	-57.8784	22.936	60.6168	-75.501	25.5936	56.9845	-74.76	59.8131	108.744	-24.3762	66.6475	120.684	-24.5696	99.7581	90.8959	-3.48497	93.8585	
254	2.11667	53.2721	-10.3007	110.743	24.26	-13.0372	94.3342	-1.17003	-14.1913	70.7718	-8.69051	-22.8813	44.595	62.1746	21.9732	31.597	50.0676	24.6466	4.98349	23.2634	4.10614	-12.8955	81.1591	7.4079	17.4616	69.7141	0.648201	-19.4735	43.2778	-26.5021	-32.3934	81.5492	-26.2702	9.55651	57.6031	-46.1171	1.38309	49.1537	-56.9966	36.8323	92.022	-53.4467	18.8549	60.2005	-66.7164	25.2313	59.5134	-63.8804	54.8162	114.473	-20.4418	67.4453	120.396	-20.4463	97.3222	90.8769	1.47625	94.2842	
255	2.125	53.3682	-6.07406	107.062	24.9595	-7.11784	84.7417	-0.928086	-8.73649	61.1419	-6.94247	-17.0874	32.428	69.5909	23.8488	31.3788	59.269	30.2119	-1.70155	37.0268	8.47888	-21.856	90.9307	9.8392	11.9452	81.995	2.88344	-22.8973	58.6245	-20.3201	-37.3787	90.4466	-23.9229	9.12564	65.1183	-45.973	-1.94128	54.5306	-53.4547	29.3081	98.5511	-51.6996	17.0205	67.7844	-66.5566	21.2541	62.3493	-60.1682	50.598	115.822	-17.5854	63.8154	123.793	-20.8017	100.059	91.4271	4.43228	89.9858	
256	2.13333	55.9721	-4.46073	96.4732	29.2951	-8.77824	77.4303	6.69	-10.1747	51.5002	2.39674	-19.1552	27.8033	77.9042	24.2138	23.9798	70.0111	31.5707	-5.55853	51.6803	11.1214	-28.2283	101.216	8.30815	11.779	94.3537	2.66204	-26.1625	68.5695	-20.2661	-43.8141	95.0526	-21.9599	2.57816	78.2366	-45.9062	-6.42046	61.4183	-54.2279	24.505	103.676	-51.03	13.4309	74.0099	-64.0687	19.3333	68.1317	-61.3068	47.1415	119.097	-13.9158	64.7646	125.449	-16.6907	96.9007	98.8843	4.7466	88.6085	
257	2.14167	55.1241	-5.09193	97.4354	32.9972	-12.0038	74.5891	8.58403	-15.2695	49.4645	6.88801	-23.5993	21.3265	77.3126	25.933	21.3523	74.1333	26.4172	-12.4066	57.7905	9.02593	-32.5583	102.315	12.9245	8.74621	99.069	5.70821	-26.5377	78.4187	-21.1825	-47.0256	101.447	-21.7309	2.33682	82.6528	-46.0976	-7.84349	67.0104	-54.979	22.2057	110.387	-49.3332	14.5862	84.0069	-66.2685	15.5616	75.6279	-61.5753	48.6843	122.683	-13.737	61.0939	128.491	-15.4862	95.825	98.1902	5.16604	86.8814	
258	2.15	56.2294	-10.054	97.5694	27.6503	-14.7856	74.352	9.15378	-22.0321	48.4198	5.93974	-31.805	19.9658	76.7712	22.5424	23.0115	69.8203	25.9408	-12.1326	58.0157	7.87696	-32.0911	103.649	10.7165	9.59247	96.2863	7.28218	-29.4598	79.8665	-21.0139	-48.0071	105.62	-24.4822	0.264096	84.7048	-47.0156	-8.57261	72.5162	-57.9903	25.4659	113.936	-45.2605	17.4706	88.679	-69.7454	16.4192	79.2271	-61.3763	47.2572	123.032	-9.59064	63.7261	130.176	-15.5765	94.6866	95.5519	7.93557	85.7348	
259	2.15833	53.4762	-11.8153	99.194	29.3946	-21.4995	77.0191	8.8332	-29.318	51.7366	3.66066	-39.8537	26.7038	66.6135	23.4022	23.7761	59.0905	25.5366	-7.54808	45.9584	5.90514	-31.9893	98.5503	12.9851	8.41475	90.3345	9.82257	-25.8092	81.3388	-18.3454	-46.9307	100.555	-19.3738	5.21413	87.2739	-44.4454	-7.76527	71.7591	-58.0352	23.0796	114.835	-45.5591	14.3415	88.3564	-68.675	18.0869	80.3784	-64.877	46.9706	121.921	-7.75181	61.8686	128.561	-13.8257	98.4994	89.6245	6.73004	89.8086	
260	2.16667	50.4401	-15.9771	103.101	27.4529	-26.4657	84.2619	3.78431	-34.9017	56.9327	-1.65273	-45.4786	28.9034	64.5623	18.5407	23.9475	57.0248	21.6574	-4.61539	41.8583	1.43948	-29.8897	92.0261	10.6065	14.9064	88.4765	8.58269	-23.2251	75.7916	-18.9794	-46.1512	97.4376	-21.962	5.83846	82.5513	-47.8215	-5.51878	72.345	-62.4263	27.0198	113.08	-46.4875	15.7903	90.9828	-70.3097	18.8966	83.2069	-67.2363	49.7623	118.567	-10.0726	67.0374	123.889	-11.5338	100.014	88.8316	5.72223	86.6692	
261	2.175	51.8838	-18.779	102.736	25.2021	-29.5454	80.447	5.73401	-40.0211	52.4184	5.03796	-51.0514	28.4179	62.6812	13.2476	25.293	52.4311	18.3491	-3.62504	44.7012	-3.38392	-29.9363	90.1696	8.62463	11.9894	90.2955	0.733527	-23.7	75.8609	-27.152	-47.1831	99.3115	-27.482	5.43883	88.087	-53.5129	-4.14405	73.3818	-66.5938	30.5927	114.01	-47.4586	22.6816	92.4596	-75.525	23.1039	82.2757	-65.8744	55.0456	117.199	-10.2324	65.9404	119.597	-11.1008	100.859	85.8389	1.99879	89.0499	
262	2.18333	49.1762	-20.7131	97.2625	25.6868	-34.8226	81.9886	4.2033	-45.5058	54.6947	4.15564	-58.6603	27.9711	64.6235	7.47111	19.4327	60.9363	6.69464	-9.56517	52.2849	-13.8244	-34.5681	96.4783	-1.31203	9.89409	95.0015	-9.648	-27.5698	85.2399	-37.5362	-46.3623	103.843	-34.6753	8.57465	88.9451	-62.8412	-0.36929	78.8923	-74.954	33.513	116.063	-56.581	23.6817	94.7025	-81.0967	26.9338	85.6897	-74.6183	56.3194	120.459	-15.7761	68.8132	122.792	-11.7201	100.5	87.0141	0.67487	84.0569	
263	2.19167	50.1534	-24.5815	93.4391	27.1328	-38.7574	76.6321	9.57427	-53.0917	46.9117	8.03397	-66.909	24.8627	67.9518	-0.314705	16.6007	62.1507	-1.98887	-14.8261	57.6315	-23.0357	-35.7469	99.9373	-9.74474	10.037	100.855	-19.0201	-25.3405	89.1844	-49.4971	-46.867	107.554	-43.1043	7.95927	97.511	-73.8582	1.57009	83.9091	-82.5087	33.9665	121.404	-62.8923	26.8344	98.6054	-87.6752	32.4388	86.1196	-78.8975	59.9174	119.522	-17.8012	67.575	121.919	-12.9503	100.851	86.1843	-4.83849	85.0989	
264	2.2	49.3152	-26.0477	98.4677	29.1258	-42.3112	79.3982	10.8952	-58.8765	48.4788	13.0373	-74.4923	29.5377	70.8825	-7.98538	14.1261	64.9219	-11.3396	-14.5564	63.0122	-35.7456	-35.5139	101.728	-16.653	7.5674	103.589	-29.8047	-27.066	92.6467	-64.1723	-44.0343	111.825	-50.6671	10.5431	95.4227	-79.2769	4.51173	84.6864	-85.5276	41.1081	120.801	-67.3298	28.606	98.7411	-92.7179	34.9296	87.2931	-78.3756	63.9709	123.255	-22.4466	67.9022	121.261	-15.7261	97.7799	87.2116	-7.19915	83.507	
265	2.20833	53.4234	-27.6882	96.8543	27.5931	-43.4003	80.5746	8.1159	-60.6374	53.9053	8.92801	-77.5111	30.8232	69.8448	-11.4502	17.7071	63.9138	-15.2767	-13.04	56.8259	-41.6187	-34.1545	97.6766	-18.6169	5.54989	96.7575	-34.0819	-24.8783	88.2405	-69.305	-37.7488	104.813	-53.9947	10.2216	92.7075	-85.1937	8.27208	80.9283	-88.0032	39.1462	119.991	-73.3144	27.402	98.2106	-94.8104	34.5286	89.6872	-83.4343	66.6697	120.694	-25.1989	62.6941	123.273	-15.7408	100.867	86.7662	-6.9055	83.4799	
266	2.21667	48.5351	-27.4439	103.316	26.5168	-44.0671	89.7411	8.00785	-59.6179	65.1489	1.95669	-77.0515	39.5793	62.099	-10.9469	26.2903	51.0844	-14.706	-9.01294	45.015	-39.5542	-26.6285	88.4412	-18.5802	8.48503	82.6055	-33.371	-24.1206	68.6815	-65.5905	-34.3114	93.1029	-50.8182	11.1346	85.6086	-80.824	7.8402	74.3191	-86.1625	44.003	110.448	-66.6539	28.7497	92.5987	-96.5683	35.9989	81.1045	-82.9769	66.2932	116.372	-23.2114	64.9689	121.513	-18.9684	95.9704	86.2995	-9.62804	87.783	
267	2.225	51.8127	-27.7413	113.029	22.4839	-41.8965	97.9166	0.668544	-57.881	75.7546	-3.09742	-73.647	52.4903	45.7891	-5.24846	33.8446	39.5973	-8.69229	1.96359	26.1998	-36.4855	-19.3082	72.1718	-12.9556	13.9898	65.9375	-28.6018	-18.7448	51.4924	-60.0164	-29.1556	81.9722	-46.49	12.2997	66.291	-74.4528	10.5569	62.2612	-81.4259	47.7346	99.2267	-63.4308	27.3539	82.1799	-91.66	32.5374	76.5975	-82.1454	66.8446	108.772	-21.552	63.0067	119.276	-16.1239	95.9659	80.0383	-6.92154	88.7586	
268	2.23333	46.856	-24.3474	120.951	14.7786	-40.0196	106.866	-4.18858	-55.4088	87.4361	-12.7295	-69.8995	59.2295	39.5912	-0.0785456	36.4681	21.8376	-2.1703	9.38944	9.49855	-25.4227	-8.8809	62.9817	-8.42044	18.9105	49.9699	-17.9372	-11.9025	37.2121	-55.0368	-25.7457	69.4864	-39.8214	14.4662	54.3261	-67.7446	12.0776	52.592	-77.5949	46.1773	91.3053	-59.3926	26.354	69.953	-86.7223	33.9987	70.9131	-82.6566	67.5295	100.123	-18.8913	65.4365	116.869	-17.4296	98.5061	76.3797	-4.31233	98.2779	
269	2.24167	45.2936	-23.9364	119.626	14.6233	-37.5586	109.854	-9.80005	-53.741	90.6122	-16.8662	-67.7634	66.0799	30.526	4.54038	45.1424	16.1835	3.40792	13.5272	3.59436	-17.1049	-4.21213	53.9039	-2.07445	25.9183	43.1794	-12.5659	-11.6476	27.5504	-44.8494	-25.7647	66.5259	-32.8377	18.7652	48.9895	-58.7561	9.9946	46.2256	-73.9132	42.7884	86.1259	-55.2081	25.4207	65.2922	-81.0227	32.0252	66.7487	-78.6618	64.8551	96.0987	-14.0139	67.3352	110.748	-11.6962	97.0227	72.0919	-0.559127	98.9934	
270	2.25	39.1769	-19.9231	122.485	10.8128	-36.426	113.273	-8.9128	-51.5675	92.0125	-15.7275	-64.8081	66.3051	30.2664	9.0954	45.3308	12.9814	9.48394	15.8468	-1.93197	-9.33892	-2.33574	50.2958	4.74436	26.2085	39.8744	-2.39283	-8.28439	18.6713	-31.9417	-26.4328	61.6511	-26.8536	17.1572	43.4888	-53.7944	10.8639	43.6566	-68.9165	44.1787	83.286	-47.0112	25.1071	64.0226	-74.9048	27.2007	60.7265	-71.0386	59.6416	94.1445	-11.8777	71.486	108.371	-7.86976	101.724	72.9237	3.10964	101.265	
271	2.25833	38.3914	-19.174	121.111	8.45588	-34.7129	108.47	-14.2319	-48.7968	87.1836	-16.4811	-58.9319	58.4494	27.9787	14.647	46.7387	10.9529	18.4729	18.228	-4.08348	-4.91753	-4.80439	51.6865	10.945	26.2964	41.9155	7.43853	-9.07074	24.999	-19.3193	-29.0268	63.1725	-17.6626	17.4917	48.491	-45.653	4.94765	43.2758	-62.0126	36.3256	81.2304	-38.507	23.4881	61.7506	-67.7658	24.4999	58.6092	-66.7057	55.3808	91.269	-4.05569	67.9487	110.66	-9.08506	100.792	69.6576	6.89222	100.926	
272	2.26667	36.6913	-17.1461	113.606	10.8416	-31.2523	98.4156	-10.369	-42.7401	73.1811	-14.0014	-53.5844	49.9125	29.8626	21.3607	46.2945	17.2653	26.997	14.8038	1.371	8.11247	-6.06455	58.7665	18.6721	22.1597	46.3338	16.3889	-12.628	27.9536	-11.6578	-34.768	65.7929	-9.3293	16.0332	51.2942	-38.0336	-0.368721	44.7012	-54.2043	28.919	83.5698	-34.1781	17.5297	64.272	-61.2465	19.0046	63.5929	-61.1779	52.1365	92.2072	-2.87264	68.54	107.988	-3.68743	98.8635	73.2855	7.01423	97.4613	
273	2.275	36.9282	-15.357	111.38	12.3712	-27.7581	88.7668	-10.0229	-40.1238	66.5066	-12.4089	-47.4642	36.7085	37.1151	26.9482	42.4779	23.5432	34.7225	12.7379	11.8174	13.4896	-11.2831	65.3273	23.0903	23.349	54.289	22.8051	-15.7186	39.7928	-0.768777	-36.7606	72.568	-6.50595	10.0778	57.9525	-30.5768	-3.30961	47.2003	-48.296	27.9889	91.2068	-29.3205	18.0026	67.2827	-51.8181	13.4364	63.0883	-56.8072	44.9482	95.5043	1.24835	72.1824	106.087	-4.51564	98.2996	71.2661	10.1618	93.6708	
274	2.28333	38.2469	-14.2528	107.32	13.7842	-26.2417	85.4512	-8.12352	-35.3876	52.4221	-3.80895	-44.0976	27.1902	41.1913	32.5186	35.7737	34.1973	36.9716	5.5571	18.6896	17.5876	-16.9334	69.2635	27.6407	17.9669	64.5831	24.1283	-18.4369	47.6073	-0.1611	-40.7287	79.4642	-4.98707	5.65506	63.6596	-25.0363	-6.20714	54.3736	-47.3105	24.6322	97.4673	-29.302	18.3076	72.8352	-53.7705	13.9906	68.6086	-54.2017	45.7499	98.0942	3.62881	70.024	111.502	-4.58443	102.828	73.4253	10.0898	92.5821	
275	2.29167	37.6572	-11.9096	99.5818	11.4702	-23.9472	75.4342	0.800432	-33.3576	45.0726	0.85018	-42.6357	18.6512	52.0039	28.9342	32.2174	43.5019	36.0882	-1.97594	30.501	11.7728	-25.5351	81.1082	23.1479	16.0775	75.4331	19.6217	-21.7913	62.8782	-6.37298	-41.2665	88.8427	-8.29212	9.40409	73.8955	-33.7289	-6.1688	58.3121	-47.397	21.9694	99.8217	-34.4197	15.9678	74.8044	-54.2486	17.3986	68.5328	-53.6748	47.7688	103.465	-0.0698117	64.7304	107.853	-3.06176	102.233	75.7316	9.78968	91.2572	
